# xmcd
#
# Track frame offsets:
#	150
#	35283
#	61253
#	81499
#	96677
#	117494
#	121712
#	139457
#	160741
#	165115
#	188806
#	205658
#	210089
#
# Disc length: 2974 seconds
#
# Revision: 2
# Processed by: cddbd v1.5.2PL0 Copyright (c) Steve Scherf et al.
# Submitted via: audiograbber 1.83.01
#
DISCID=ab0b9c0d
DTITLE=Helge Schneider - Partypeople (beim Fleischer)
DYEAR=2019
DGENRE=Comedy
TTITLE0=Dance To The Music (Music Is The Language)
TTITLE1=Einkaufen
TTITLE2=Wundertüte (ja ja die...)
TTITLE3=Wenn der Komet kommt
TTITLE4=Saxophonoutlet
TTITLE5=Beim Fleischer
TTITLE6=Politsong (This Is A Political...)
TTITLE7=Partypeople
TTITLE8=Steine
TTITLE9=Lonely Pony
TTITLE10=Leberblues
TTITLE11=Klaus mit Helmut und Erwin
TTITLE12=Kirmesblues
EXTD=MARO\n
EXTT0=
EXTT1=
EXTT2=
EXTT3=
EXTT4=
EXTT5=
EXTT6=
EXTT7=
EXTT8=
EXTT9=
EXTT10=
EXTT11=
EXTT12=
PLAYORDER=
